<svg xmlns="http://www.w3.org/2000/svg" viewBox="0 0 1040 640" font-family="-apple-system,BlinkMacSystemFont,'PingFang SC','Hiragino Sans GB','Microsoft YaHei',sans-serif" role="img" aria-label="驾驶舱五区块骨架">
<rect width="1040" height="640" fill="#f2f5f0"/>
<!-- 浏览器框 -->
<rect x="60" y="40" width="920" height="560" fill="#ffffff" stroke="#231f20" stroke-width="2"/>
<line x1="60" y1="80" x2="980" y2="80" stroke="#231f20" stroke-width="1.5"/>
<circle cx="84" cy="60" r="4" fill="rgba(35,31,32,.3)"/><circle cx="100" cy="60" r="4" fill="rgba(35,31,32,.3)"/><circle cx="116" cy="60" r="4" fill="rgba(35,31,32,.3)"/>
<rect x="140" y="50" width="400" height="20" fill="none" stroke="rgba(35,31,32,.25)"/>
<text x="150" y="64" font-size="10" fill="rgba(35,31,32,.35)" style="font-family:'SF Mono',Menlo,monospace">cockpit.你的部门.example</text>
<!-- ① KPI 带 -->
<rect x="90" y="110" width="860" height="90" fill="none" stroke="#f24e54" stroke-width="2"/>
<text x="104" y="132" font-size="12.5" font-weight="800" fill="#231f20">① 顶部 KPI 带</text>
<text x="936" y="132" text-anchor="end" font-size="10.5" fill="rgba(35,31,32,.5)">回答「整体怎么样？」· 指标 ≤5 个</text>
<g fill="none" stroke="rgba(35,31,32,.3)">
<rect x="104" y="144" width="190" height="44"/><rect x="314" y="144" width="190" height="44"/><rect x="524" y="144" width="190" height="44"/><rect x="734" y="144" width="190" height="44"/>
</g>
<g font-size="10" fill="rgba(35,31,32,.4)" style="font-family:'SF Mono',Menlo,monospace">
<text x="199" y="170" text-anchor="middle">指标 1</text><text x="409" y="170" text-anchor="middle">指标 2</text><text x="619" y="170" text-anchor="middle">指标 3</text><text x="829" y="170" text-anchor="middle">指标 4</text>
</g>
<!-- ② 趋势区 -->
<rect x="90" y="220" width="520" height="140" fill="none" stroke="#f24e54" stroke-width="2"/>
<text x="104" y="242" font-size="12.5" font-weight="800" fill="#231f20">② 趋势区</text>
<text x="596" y="242" text-anchor="end" font-size="10.5" fill="rgba(35,31,32,.5)">回答「最近在变好吗？」</text>
<polyline points="120,330 190,310 260,318 330,285 400,295 470,268 540,275 580,255" fill="none" stroke="rgba(35,31,32,.45)" stroke-width="2"/>
<!-- ③ 对比区 -->
<rect x="630" y="220" width="320" height="140" fill="none" stroke="#f24e54" stroke-width="2"/>
<text x="644" y="242" font-size="12.5" font-weight="800" fill="#231f20">③ 对比区</text>
<text x="936" y="242" text-anchor="end" font-size="10.5" fill="rgba(35,31,32,.5)">回答「谁好谁差？」</text>
<rect x="680" y="290" width="40" height="50" fill="rgba(35,31,32,.25)"/><rect x="760" y="270" width="40" height="70" fill="rgba(35,31,32,.45)"/><rect x="840" y="305" width="40" height="35" fill="rgba(35,31,32,.2)"/>
<line x1="660" y1="340" x2="920" y2="340" stroke="rgba(35,31,32,.3)"/>
<!-- ④ 异常/预警区 -->
<rect x="90" y="380" width="420" height="120" fill="none" stroke="#f5a947" stroke-width="2"/>
<text x="104" y="402" font-size="12.5" font-weight="800" fill="#231f20">④ 异常 / 预警区</text>
<text x="496" y="402" text-anchor="end" font-size="10.5" fill="rgba(35,31,32,.5)">回答「哪里要人看？」</text>
<g>
<circle cx="112" cy="428" r="4" fill="#f5a947"/><rect x="128" y="422" width="340" height="9" fill="rgba(35,31,32,.15)"/>
<circle cx="112" cy="452" r="4" fill="#f5a947"/><rect x="128" y="446" width="280" height="9" fill="rgba(35,31,32,.15)"/>
<circle cx="112" cy="476" r="4" fill="#f24e54"/><rect x="128" y="470" width="310" height="9" fill="rgba(35,31,32,.15)"/>
</g>
<!-- ⑤ 明细区 -->
<rect x="530" y="380" width="420" height="120" fill="none" stroke="#5f52a0" stroke-width="2"/>
<text x="544" y="402" font-size="12.5" font-weight="800" fill="#231f20">⑤ 明细区</text>
<text x="936" y="402" text-anchor="end" font-size="10.5" fill="rgba(35,31,32,.5)">回答「具体是哪几笔？」</text>
<g stroke="rgba(35,31,32,.2)">
<line x1="544" y1="424" x2="936" y2="424"/><line x1="544" y1="446" x2="936" y2="446"/><line x1="544" y1="468" x2="936" y2="468"/><line x1="544" y1="490" x2="936" y2="490"/>
</g>
<!-- ⑥ 幽灵块 -->
<rect x="90" y="520" width="860" height="60" fill="none" stroke="#1400ff" stroke-width="2" stroke-dasharray="6 4"/>
<text x="520" y="555" text-anchor="middle" font-size="13" font-weight="800" fill="#1400ff">⑥ AI 摘要与建议 —— Day 5 模型接电后长出</text>
</svg>
